<svg width="21" height="24" viewBox="0 0 21 24" fill="none" xmlns="http://www.w3.org/2000/svg">
<path d="M19.324 10.3306L11.8606 19.7273C10.1458 21.8861 6.9944 22.2475 4.83552 20.5328C2.67664 18.818 2.31529 15.6666 4.03001 13.5077L11.4935 4.11108C12.5222 2.81591 14.4133 2.59907 15.7085 3.62778C17.0036 4.65649 17.2205 6.54763 16.1918 7.8428L10.5942 14.8903C10.2515 15.3218 9.62065 15.3941 9.18919 15.0514C8.75773 14.7087 8.68539 14.0778 9.02809 13.6464L14.0037 7.38195L12.4376 6.13804L7.46198 12.4025C6.4314 13.7 6.64776 15.5869 7.94528 16.6175C9.2428 17.6481 11.1297 17.4317 12.1603 16.1342L17.7579 9.08671C19.4751 6.9247 19.1144 3.77888 16.9524 2.06167C14.7904 0.344458 11.6446 0.705163 9.92734 2.86718L2.4639 12.2638C0.0594321 15.2911 0.564322 19.6944 3.59161 22.0989C6.6189 24.5034 11.0222 23.9985 13.4267 20.9712L20.8901 11.5745L19.324 10.3306Z" fill="white"/>
</svg>
