<svg width="20" height="20" viewBox="0 0 20 20" fill="none" xmlns="http://www.w3.org/2000/svg">
<path d="M16.3376 6.4667L16.3355 6.46676C16.2041 6.4705 16.0766 6.5226 15.9811 6.6167L9.99927 12.3258L4.01736 6.61668C3.91815 6.51894 3.78607 6.46971 3.65395 6.46788L3.65395 6.46783L3.64937 6.46787C3.44445 6.46973 3.25564 6.58762 3.17292 6.7771L3.1729 6.77709L3.1719 6.77948C3.0905 6.9727 3.13968 7.19139 3.29211 7.33382L9.63685 13.3893C9.83807 13.5813 10.1605 13.5813 10.3617 13.3893L16.706 7.33422C16.8609 7.19095 16.9094 6.96743 16.8259 6.77425L16.8259 6.77424L16.8252 6.77259C16.7403 6.581 16.5457 6.46297 16.3376 6.4667Z" fill="white" stroke="white" stroke-width="0.4"/>
</svg>
